# xmcd CD database file
#
# Track frame offsets:
#	150
#	18526
#	35376
#	57104
#	69983
#	87349
#	96205
#	113926
#	134078
#	149502
#	162927
#	184107
#	204388
#	214666
#	235074
#	252798
#
# Disc length: 3658 seconds
#
# Revision: 2
# Processed by: cddbd v1.5.2PL0 Copyright (c) Steve Scherf et al.
# Submitted via: CDex 1.51
#
DISCID=e30e4810
DTITLE=Various Artist - The Colour of Merengue  [CD 3-3] 
DYEAR=2011
DGENRE=Merengue
TTITLE0=Manuela Montero - Camino Del Corazón - 
TTITLE1=Roberto Montova - Juanita Morey
TTITLE2=Francisco Hernandez - A Pedir Su Mano
TTITLE3=Raul Ramirez - Compadre Pedro Juan
TTITLE4=Emillio Acosto - Lo Accepto
TTITLE5=Chico Granado - Por La Plata
TTITLE6=Ramiro Olivo - Caramelo
TTITLE7=Tortosa - El Baile Del Perrito
TTITLE8=Bernardo Gonidez - Visa Para Un Sueno
TTITLE9=Placido Ochoa - Puerto Rico
TTITLE10=Miguel Martinez - La Ventanita
TTITLE11=Pueblo Ocasio - Dejate Querer
TTITLE12=Rio Ramirez - Coco De Agua
TTITLE13=Jacinto Ibarra - Merengue Aumentativo
TTITLE14=Lisa De Maya - La Fiesta
TTITLE15=Rolando Ocampo - Aruba Bob Bon
EXTD=YEAR: 2011
EXTT0=
EXTT1=
EXTT2=
EXTT3=
EXTT4=
EXTT5=
EXTT6=
EXTT7=
EXTT8=
EXTT9=
EXTT10=
EXTT11=
EXTT12=
EXTT13=
EXTT14=
EXTT15=
PLAYORDER=
